<svg xmlns="http://www.w3.org/2000/svg" xmlns:xlink="http://www.w3.org/1999/xlink" width="500" zoomAndPan="magnify" viewBox="0 0 375 374.999991" height="500" preserveAspectRatio="xMidYMid meet" version="1.0"><defs><g/></defs><g fill="#000000" fill-opacity="1"><g transform="translate(2.440983, 298.289171)"><g><path d="M 95.714844 -29.371094 L 95.714844 0 L 7.34375 0 L 20.257812 -12.914062 L 20.257812 -136.480469 L 7.34375 -149.394531 L 55.960938 -149.394531 L 43.046875 -136.480469 L 43.046875 -12.152344 L 78.75 -12.152344 Z M 95.714844 -29.371094 "/></g></g></g><g fill="#000000" fill-opacity="1"><g transform="translate(107.139221, 286.249492)"><g><path d="M 91.113281 -72.207031 L 74.738281 -122.230469 L 74.140625 -122.230469 L 57.765625 -72.207031 L 5.65625 -72.207031 L 5.65625 -71.609375 L 47.789062 -41.089844 L 31.265625 9.230469 L 31.710938 9.378906 L 74.4375 -21.585938 L 117.167969 9.378906 L 117.613281 9.230469 L 101.089844 -41.089844 L 143.222656 -71.609375 L 143.222656 -72.207031 Z M 91.113281 -72.207031 "/></g></g></g><g fill="#000000" fill-opacity="1"><g transform="translate(254.806687, 298.289171)"><g><path d="M 70.390625 -12.914062 L 83.050781 0 L 34.691406 0 L 47.601562 -12.914062 L 47.601562 -137.238281 L 22.28125 -137.238281 L 5.316406 -120.019531 L 5.316406 -149.394531 L 112.425781 -149.394531 L 112.425781 -120.019531 L 95.460938 -137.238281 L 70.390625 -137.238281 Z M 70.390625 -12.914062 "/></g></g></g></svg>