<svg fill="none" height="24" viewBox="0 0 129 24" width="129" xmlns="http://www.w3.org/2000/svg"><path d="m24 0h-24v24z" fill="#c8c8c8"/><path d="m0 0h24v24z" fill="#929292"/><path d="m12 12-12-12h24z" fill="#6d6d6d"/><path d="m41.756 13.13c0-1.946-1.232-2.632-3.276-3.122-1.512-.364-1.876-.728-1.876-1.498 0-.742.532-1.218 1.526-1.218.924 0 1.484.518 1.652 1.372l1.764-.238c-.224-1.484-1.358-2.562-3.402-2.562-2.03 0-3.332 1.148-3.332 2.786 0 1.75 1.022 2.534 3.136 3.024 1.456.35 1.946.714 1.946 1.624 0 .84-.672 1.414-1.666 1.414-1.302 0-1.764-.798-1.904-1.722l-1.82.238c.224 1.526 1.358 2.912 3.71 2.912 2.17 0 3.542-1.274 3.542-3.01zm1.5625 2.87h1.792v-4.424c0-1.064.686-1.568 1.512-1.568.868 0 1.26.448 1.26 1.428v4.564h1.806v-4.774c0-1.876-.952-2.702-2.324-2.702-1.134 0-1.904.574-2.254 1.288v-4.438h-1.792zm7.7701-3.374c0 2.156 1.526 3.514 3.57 3.514 2.016 0 3.57-1.344 3.57-3.542v-.56c0-2.17-1.54-3.514-3.556-3.514-2.044 0-3.584 1.372-3.584 3.556zm1.82 0v-.588c0-1.344.672-2.128 1.764-2.128 1.064 0 1.722.784 1.722 2.142v.574c0 1.33-.644 2.142-1.722 2.142-1.106 0-1.764-.812-1.764-2.142zm6.7752-3.948v9.814h1.792v-3.612c.364.714 1.148 1.26 2.226 1.26 1.736 0 2.982-1.26 2.982-3.514v-.63c0-2.24-1.274-3.472-2.94-3.472-1.05 0-1.876.602-2.268 1.302v-1.148zm1.75 3.934v-.546c0-1.442.728-2.156 1.75-2.156.966 0 1.666.7 1.666 2.114v.63c0 1.358-.588 2.086-1.666 2.086-1.064 0-1.75-.7-1.75-2.128zm7.6645-4.984c.588 0 1.05-.434 1.05-1.008s-.462-1.008-1.05-1.008-1.05.434-1.05 1.008.448 1.008 1.05 1.008zm-.896 8.372h1.792v-7.322h-1.792zm3.9988 0h1.806v-5.95h1.834v-1.372h-1.834v-.966c0-.616.266-1.022 1.008-1.022.364 0 .728.056.924.14v-1.372c-.308-.098-.686-.154-1.218-.154-1.624 0-2.52.812-2.52 2.436v.938h-.938v1.372h.938zm6.1333-7.322h-1.932l2.73 6.622-1.218 3.192h1.764l3.738-9.814h-1.75l-1.596 4.536zm9.575 7.322h5.866v-.98h-4.676v-3.71h3.626v-.966h-3.626v-3.388h4.438v-.966h-5.628zm6.9953 0h1.204l1.876-2.954 1.834 2.954h1.3303l-2.4923-3.85 2.2683-3.472h-1.2323l-1.652 2.674-1.666-2.674h-1.33l2.296 3.556zm7.8373-7.322v9.856h1.134v-3.668c.392.686 1.19 1.26 2.31 1.26 1.876 0 3.08-1.4 3.08-3.514v-.644c0-2.128-1.274-3.416-3.052-3.416-1.022 0-1.932.602-2.338 1.302v-1.176zm1.106 3.948v-.56c0-1.736.938-2.562 2.198-2.562 1.134 0 2.044.826 2.044 2.52v.63c0 1.638-.714 2.52-2.044 2.52-1.316 0-2.198-.812-2.198-2.548zm13.015 1.54-.952-.308c-.196.602-.756 1.316-1.918 1.316-1.386 0-2.156-.854-2.156-2.534v-.07h5.11v-.602c0-2.436-1.456-3.416-3.08-3.416-1.89 0-3.206 1.414-3.206 3.5v.588c0 2.142 1.372 3.486 3.304 3.486 1.694 0 2.59-1.008 2.898-1.96zm-2.996-4.662c1.12 0 1.862.588 1.918 2.072v.07h-3.934c.14-1.484.994-2.142 2.016-2.142zm4.912 6.496h1.134v-4.186c0-1.694.882-2.142 2.562-2.17v-1.078c-1.54 0-2.114.546-2.562 1.372v-1.26h-1.134zm5.502-9.31v1.988h-.994v.966h.994v4.564c0 1.148.616 1.876 2.016 1.876.504 0 .84-.084 1.106-.21v-.952c-.266.126-.63.196-1.008.196-.63 0-.966-.28-.966-1.008v-4.466h1.89v-.966h-1.89v-1.988z" fill="#000"/></svg>