<svg xmlns="http://www.w3.org/2000/svg" xmlns:xlink="http://www.w3.org/1999/xlink" width="500" zoomAndPan="magnify" viewBox="0 0 375 374.999991" height="500" preserveAspectRatio="xMidYMid meet" version="1.0"><defs><g/></defs><g fill="#000000" fill-opacity="1"><g transform="translate(102.599815, 223.881453)"><g><path d="M 45.359375 -13.921875 L 45.359375 0 L 3.480469 0 L 9.601562 -6.121094 L 9.601562 -64.679688 L 3.480469 -70.800781 L 26.519531 -70.800781 L 20.398438 -64.679688 L 20.398438 -5.761719 L 37.320312 -5.761719 Z M 45.359375 -13.921875 "/></g></g></g><g fill="#000000" fill-opacity="1"><g transform="translate(152.217981, 218.175652)"><g><path d="M 43.179688 -34.21875 L 35.417969 -57.925781 L 35.136719 -57.925781 L 27.375 -34.21875 L 2.679688 -34.21875 L 2.679688 -33.9375 L 22.648438 -19.472656 L 14.816406 4.375 L 15.027344 4.445312 L 35.277344 -10.230469 L 55.527344 4.445312 L 55.738281 4.375 L 47.90625 -19.472656 L 67.875 -33.9375 L 67.875 -34.21875 Z M 43.179688 -34.21875 "/></g></g></g><g fill="#000000" fill-opacity="1"><g transform="translate(222.199941, 223.881453)"><g><path d="M 33.359375 -6.121094 L 39.359375 0 L 16.441406 0 L 22.558594 -6.121094 L 22.558594 -65.039062 L 10.558594 -65.039062 L 2.519531 -56.878906 L 2.519531 -70.800781 L 53.28125 -70.800781 L 53.28125 -56.878906 L 45.238281 -65.039062 L 33.359375 -65.039062 Z M 33.359375 -6.121094 "/></g></g></g></svg>